{
  "asset": {
    "generator": "Khronos glTF Blender I/O v1.7.33",
    "version": "2.0"
  },
  "scene": 0,
  "scenes": [
    {
      "name": "Scene",
      "nodes": [
        0
      ]
    }
  ],
  "nodes": [
    {
      "mesh": 0,
      "name": "sphere_gltf"
    }
  ],
  "materials": [
    {
      "doubleSided": true,
      "name": "mud_cracked_dry_riverbed_002",
      "normalTexture": {
        "index": 0
      },
      "pbrMetallicRoughness": {
        "baseColorTexture": {
          "index": 1
        },
        "metallicFactor": 0,
        "metallicRoughnessTexture": {
          "index": 2
        }
      }
    }
  ],
  "meshes": [
    {
      "name": "Sphere.001",
      "primitives": [
        {
          "attributes": {
            "POSITION": 0,
            "NORMAL": 1,
            "TEXCOORD_0": 2
          },
          "indices": 3,
          "material": 0
        }
      ]
    }
  ],
  "textures": [
    {
      "sampler": 0,
      "source": 0
    },
    {
      "sampler": 0,
      "source": 1
    },
    {
      "sampler": 0,
      "source": 2
    }
  ],
  "images": [
    {
      "mimeType": "image/jpeg",
      "name": "mud_cracked_dry_riverbed_002_nor_gl_8k",
      "uri": "textures/mud_cracked_dry_riverbed_002_nor_gl_1k.jpg"
    },
    {
      "mimeType": "image/jpeg",
      "name": "mud_cracked_dry_riverbed_002_diff_8k",
      "uri": "textures/mud_cracked_dry_riverbed_002_diff_1k.jpg"
    },
    {
      "mimeType": "image/jpeg",
      "name": "mud_cracked_dry_riverbed_002_rough_8k",
      "uri": "textures/mud_cracked_dry_riverbed_002_rough_1k.jpg"
    }
  ],
  "accessors": [
    {
      "bufferView": 0,
      "componentType": 5126,
      "count": 53900,
      "max": [
        1.0132194757461548,
        1.00961434841156,
        1.0094276666641235
      ],
      "min": [
        -1.0132193565368652,
        -1.0075149536132812,
        -1.009422779083252
      ],
      "type": "VEC3"
    },
    {
      "bufferView": 1,
      "componentType": 5126,
      "count": 53900,
      "type": "VEC3"
    },
    {
      "bufferView": 2,
      "componentType": 5126,
      "count": 53900,
      "type": "VEC2"
    },
    {
      "bufferView": 3,
      "componentType": 5123,
      "count": 322170,
      "type": "SCALAR"
    }
  ],
  "bufferViews": [
    {
      "buffer": 0,
      "byteLength": 646800,
      "byteOffset": 0
    },
    {
      "buffer": 0,
      "byteLength": 646800,
      "byteOffset": 646800
    },
    {
      "buffer": 0,
      "byteLength": 431200,
      "byteOffset": 1293600
    },
    {
      "buffer": 0,
      "byteLength": 644340,
      "byteOffset": 1724800
    }
  ],
  "samplers": [
    {
      "magFilter": 9729,
      "minFilter": 9987
    }
  ],
  "buffers": [
    {
      "byteLength": 2369140,
      "uri": "mud_cracked_dry_riverbed_002.bin"
    }
  ]
}