<svg xmlns="http://www.w3.org/2000/svg" viewBox="0 0 512 640" x="0px" y="0px"><title>glyph speed increase</title><path d="M155.66,173.84a31.79,31.79,0,0,1,4,.25,104.43,104.43,0,0,0,13.17.87c48.24,0,62.13-39,65.86-55.8a25.32,25.32,0,0,1,3.46-8.29,5,5,0,0,0-4-7.76H83.52a11.72,11.72,0,0,0-8.23,20.07l50.45,49.75a16.08,16.08,0,0,0,17.55,3.43A31.55,31.55,0,0,1,155.66,173.84Z" fill="#ffffff"/><path d="M371.43,179.46l-.32-.27a6.68,6.68,0,0,0-10.34,2.13L233.55,440.22a40.34,40.34,0,0,1-36.44,22.69H28a4.36,4.36,0,0,0-4.34,3.87q-.31,2.87-.56,5.87a16.26,16.26,0,0,0,16.21,17.54H232.11a25,25,0,0,0,22.47-14.12L379.17,217.23A31.75,31.75,0,0,0,371.43,179.46Z" fill="#ffffff"/><path d="M33.25,445.32H139.39a6.84,6.84,0,0,0,6.83-7.56C143,409,125.75,392.43,113.16,384a29,29,0,0,0-22.31-4.15C69,384.71,41.57,399.12,29.1,439.64A4.37,4.37,0,0,0,33.25,445.32Z" fill="#ffffff"/><path d="M197.11,445.32a22.87,22.87,0,0,0,20.65-12.86L347.21,169a6.65,6.65,0,0,0-2.57-8.69,196.73,196.73,0,0,0-46.78-19.74,19.11,19.11,0,0,1-8.54-5.08l-17.88-18.36A10.83,10.83,0,0,0,258.78,115a11.42,11.42,0,0,0-1.18.66,10.87,10.87,0,0,0-4.58,6.68c-3.39,15.25-19.41,67.28-80.17,67.28a119.48,119.48,0,0,1-15-1,15.92,15.92,0,0,0-2.17-.14,17,17,0,0,0-10.46,3.61A16.77,16.77,0,0,0,141,197l-5.89,10.38a16.88,16.88,0,0,0-.84,15l8.59,20A32.32,32.32,0,0,1,145.35,253a4.28,4.28,0,0,0,2.13,3.38c9.42,5.46,24.45,13,40.09,16.22a9.06,9.06,0,0,1,7.37,9.82,8.79,8.79,0,0,1-8.71,7.68,9.3,9.3,0,0,1-1.73-.17c-13.76-2.75-26.82-8.27-37-13.47a4.34,4.34,0,0,0-6.24,3l-2.55,13a4.37,4.37,0,0,0,2.11,4.62c9.43,5.45,24.35,12.92,39.87,16.09a9.06,9.06,0,0,1,7.37,9.83,8.8,8.8,0,0,1-8.72,7.67,9.3,9.3,0,0,1-1.73-.17c-14.2-2.84-27.66-8.63-37.95-14a4.34,4.34,0,0,0-6.27,3l-2.49,12.67A4.32,4.32,0,0,0,133,337c9.46,5.3,23.36,12,37.78,14.91a9.08,9.08,0,0,1,7.39,9.83,8.79,8.79,0,0,1-8.71,7.67,8.69,8.69,0,0,1-1.74-.17c-13.28-2.65-25.92-7.9-35.93-12.94a4.34,4.34,0,0,0-6.21,3.06l-1.54,7.82a4.32,4.32,0,0,0,1.7,4.35,98.56,98.56,0,0,1,10.89,9.08A89.64,89.64,0,0,1,164,439.06a6.85,6.85,0,0,0,6.84,6.26Z" fill="#ffffff"/><path d="M439.22,22.79a2.72,2.72,0,0,0-4.19,0L385.9,81.47A2.74,2.74,0,0,0,388,86h21.64V126a2.45,2.45,0,0,0,2.45,2.45h50.07a2.45,2.45,0,0,0,2.45-2.45V86h21.64a2.73,2.73,0,0,0,2.09-4.49Z" fill="#ffffff"/><rect x="409.64" y="146.48" width="54.98" height="28.96" rx="2.45" ry="2.45" fill="#ffffff"/><rect x="409.64" y="193.44" width="54.98" height="14.91" rx="2.45" ry="2.45" fill="#ffffff"/><text x="0" y="527" fill="#ffffff" font-size="5px" font-weight="bold" font-family="'Helvetica Neue', Helvetica, Arial-Unicode, Arial, Sans-serif">Created by Maxicons</text><text x="0" y="532" fill="#ffffff" font-size="5px" font-weight="bold" font-family="'Helvetica Neue', Helvetica, Arial-Unicode, Arial, Sans-serif">from the Noun Project</text></svg>